# xmcd CD database file
#
# Track frame offsets:
#	150
#	16428
#	42970
#	60145
#	78385
#	94705
#	111930
#	128950
#	147550
#	161658
#	178893
#	193290
#	207953
#	228710
#	247958
#	266113
#
# Disc length: 3775 seconds
#
# Revision: 1
# Processed by: cddbd v1.5PL3 Copyright (c) Steve Scherf et al.
# Submitted via: CDex 1.51
#
DISCID=e90ebd10
DTITLE=B.B.KING - MAKIN' LOVE IS GOOD FOR YOU
DYEAR=1900
DGENRE=Blues
TTITLE0=I GOT TO LEAVE THIS WOMAN
TTITLE1=SINCE I FELL FOR YOU
TTITLE2=I KNOW
TTITLE3=PEACE OF MIND
TTITLE4=MONDAY WOMAN
TTITLE5=AIN'T NOBODY LIKE MY BABY
TTITLE6=MAKIN' LOVE IS GOOD FOR YOU
TTITLE7=DON'T GO NO FARTHER
TTITLE8=ACTION SPEAK LOUDER THAN WORDS
TTITLE9=WHAT YOU BET
TTITLE10=YOU'RE ON TOP
TTITLE11=TOO GOOD TO YOU BABY
TTITLE12=I'M IN THE WRONG BUSINESS
TTITLE13=SHE'S MY BABY
TTITLE14=IT'S STILL CALLED THE BLUES
TTITLE15=MY GAL KEEPS ME CRYIN'
EXTD=
EXTT0=
EXTT1=
EXTT2=
EXTT3=
EXTT4=
EXTT5=
EXTT6=
EXTT7=
EXTT8=
EXTT9=
EXTT10=
EXTT11=
EXTT12=
EXTT13=
EXTT14=
EXTT15=
PLAYORDER=
